<?xml version="1.0" encoding="utf-8"?>
<!-- Generator: Adobe Illustrator 24.3.0, SVG Export Plug-In . SVG Version: 6.00 Build 0)  -->
<svg version="1.1" id="Layer_1" xmlns="http://www.w3.org/2000/svg" xmlns:xlink="http://www.w3.org/1999/xlink" x="0px" y="0px"
	 viewBox="0 0 180 180" enable-background="new 0 0 180 180" xml:space="preserve">
<g>
	<path fill="#323E50" d="M114.529,134.18c0,4.6-4.182,8.328-9.342,8.328H76.866c-5.159,0-9.342-3.728-9.342-8.328V73.504
		c0-4.599,4.182-8.328,9.342-8.328h28.322c5.159,0,9.342,3.729,9.342,8.328V134.18z"/>
	<path fill="#323E50" d="M153.67,136.416c0,3.364-3.602,6.092-8.046,6.092h-24.388c-4.443,0-8.046-2.728-8.046-6.092V92.032
		c0-3.364,3.603-6.092,8.046-6.092h24.388c4.444,0,8.046,2.728,8.046,6.092V136.416z"/>
	<path fill="#323E50" d="M66.809,136.416c0,3.364-3.602,6.092-8.046,6.092H34.375c-4.444,0-8.046-2.728-8.046-6.092V92.032
		c0-3.364,3.602-6.092,8.046-6.092h24.388c4.444,0,8.046,2.728,8.046,6.092V136.416z"/>
	<polygon fill="#542B4C" points="61.574,74.268 90.565,37.492 119.568,74.268 	"/>
	<polygon fill="#542B4C" points="24.747,89.977 46.565,62.301 68.392,89.977 	"/>
	<path fill="#39485D" d="M47.148,85.941H34.375c-4.444,0-8.046,2.728-8.046,6.092v44.384c0,3.364,3.602,6.092,8.046,6.092h12.773
		V85.941z"/>
	<polygon fill="#63335A" points="47.148,63.039 46.565,62.301 24.747,89.977 47.148,89.977 	"/>
	<path fill="#39485D" d="M90.087,65.176H76.604c-5.016,0-9.08,3.729-9.08,8.328v60.676c0,4.6,4.064,8.328,9.08,8.328h13.483V65.176z
		"/>
	<polygon fill="#63335A" points="90.087,38.099 61.574,74.268 90.087,74.268 	"/>
	<path fill="#39485D" d="M133.431,85.941h-12.195c-4.443,0-8.046,2.728-8.046,6.092v44.384c0,3.364,3.603,6.092,8.046,6.092h12.195
		V85.941z"/>
	<polygon fill="#542B4C" points="111.608,89.977 133.426,62.301 155.253,89.977 	"/>
	<polygon fill="#63335A" points="133.431,62.306 133.426,62.301 111.608,89.977 133.431,89.977 	"/>
	<path fill="#F6A700" d="M102.631,142.508c0.001-0.066,0.01-0.129,0.01-0.194v-23.939c0-0.302-0.017-0.6-0.046-0.895
		c0.022-0.297,0.046-0.593,0.046-0.895c0-6.933-5.62-12.553-12.553-12.553c-6.933,0-12.553,5.62-12.553,12.553
		c0,0.302,0.024,0.599,0.045,0.895c-0.028,0.295-0.045,0.593-0.045,0.895v23.939c0,0.066,0.008,0.129,0.01,0.194H102.631z"/>
	<path fill="#FFCF00" d="M90.087,104.03c-6.933,0-12.553,5.62-12.553,12.553c0,0.302,0.024,0.599,0.045,0.895
		c-0.028,0.295-0.045,0.593-0.045,0.895v23.939c0,0.066,0.008,0.129,0.01,0.194h12.544V104.03z"/>
	<path fill="#F6A700" d="M142.376,142.508c0.001-0.047,0.007-0.092,0.007-0.138v-17.073c0-0.216-0.012-0.428-0.031-0.639
		c0.014-0.211,0.031-0.423,0.031-0.638c0-4.945-4.008-8.953-8.953-8.953c-4.944,0-8.953,4.008-8.953,8.953
		c0,0.216,0.017,0.427,0.031,0.638c-0.019,0.211-0.031,0.423-0.031,0.639v17.073c0,0.046,0.006,0.092,0.006,0.138H142.376z"/>
	<path fill="#FFCF00" d="M133.431,115.067c-4.944,0-8.953,4.008-8.953,8.953c0,0.216,0.017,0.427,0.031,0.638
		c-0.019,0.211-0.031,0.423-0.031,0.639v17.073c0,0.046,0.006,0.092,0.006,0.138h8.947V115.067z"/>
	<path fill="#F6A700" d="M150.843,110.333c0-0.025,0.005-0.051,0.005-0.076v-9.449c0-0.119-0.01-0.237-0.024-0.353
		c0.011-0.118,0.024-0.234,0.024-0.354c0-2.736-3.094-4.955-6.909-4.955c-3.816,0-6.909,2.219-6.909,4.955
		c0,0.12,0.013,0.236,0.024,0.354c-0.014,0.117-0.024,0.234-0.024,0.353v9.449c0,0.026,0.004,0.051,0.005,0.076H150.843z"/>
	<path fill="#FFCF00" d="M130.214,110.333c0.001-0.025,0.006-0.051,0.006-0.076v-9.449c0-0.119-0.01-0.237-0.024-0.353
		c0.011-0.118,0.024-0.234,0.024-0.354c0-2.736-3.094-4.955-6.909-4.955c-3.816,0-6.91,2.219-6.91,4.955
		c0,0.12,0.014,0.236,0.025,0.354c-0.014,0.117-0.025,0.234-0.025,0.353v9.449c0,0.026,0.005,0.051,0.006,0.076H130.214z"/>
	<path fill="#F6A700" d="M64.365,110.333c0-0.025,0.005-0.051,0.005-0.076v-9.449c0-0.119-0.008-0.237-0.024-0.353
		c0.011-0.118,0.024-0.234,0.024-0.354c0-2.736-3.094-4.955-6.908-4.955c-3.818,0-6.91,2.219-6.91,4.955
		c0,0.12,0.013,0.236,0.024,0.354c-0.015,0.117-0.024,0.234-0.024,0.353v9.449c0,0.026,0.004,0.051,0.005,0.076H64.365z"/>
	<path fill="#FFCF00" d="M43.737,110.333c0-0.025,0.005-0.051,0.005-0.076v-9.449c0-0.119-0.01-0.237-0.024-0.353
		c0.011-0.118,0.024-0.234,0.024-0.354c0-2.736-3.094-4.955-6.909-4.955c-3.816,0-6.909,2.219-6.909,4.955
		c0,0.12,0.013,0.236,0.024,0.354c-0.014,0.117-0.024,0.234-0.024,0.353v9.449c0,0.026,0.004,0.051,0.005,0.076H43.737z"/>
	<path fill="#F6A700" d="M107.305,95.146c0-0.026,0.005-0.051,0.005-0.076V85.62c0-0.119-0.008-0.237-0.024-0.354
		c0.011-0.117,0.024-0.234,0.024-0.353c0-2.736-3.094-4.955-6.908-4.955c-3.818,0-6.91,2.219-6.91,4.955
		c0,0.12,0.013,0.236,0.024,0.353c-0.015,0.117-0.024,0.234-0.024,0.354v9.449c0,0.026,0.004,0.051,0.005,0.076H107.305z"/>
	<path fill="#FFCF00" d="M86.677,95.146c0-0.026,0.005-0.051,0.005-0.076V85.62c0-0.119-0.01-0.237-0.024-0.354
		c0.011-0.117,0.024-0.234,0.024-0.353c0-2.736-3.094-4.955-6.909-4.955c-3.816,0-6.909,2.219-6.909,4.955
		c0,0.12,0.013,0.236,0.024,0.353c-0.014,0.117-0.024,0.234-0.024,0.354v9.449c0,0.026,0.004,0.051,0.005,0.076H86.677z"/>
	<path fill="#F6A700" d="M56.093,142.508c0.001-0.047,0.007-0.092,0.007-0.138v-17.073c0-0.216-0.012-0.428-0.032-0.639
		c0.014-0.211,0.032-0.423,0.032-0.638c0-4.945-4.008-8.953-8.953-8.953c-4.945,0-8.953,4.008-8.953,8.953
		c0,0.216,0.017,0.427,0.031,0.638c-0.019,0.211-0.031,0.423-0.031,0.639v17.073c0,0.046,0.006,0.092,0.006,0.138H56.093z"/>
	<path fill="#FFCF00" d="M47.148,115.067c-4.945,0-8.953,4.008-8.953,8.953c0,0.216,0.017,0.427,0.031,0.638
		c-0.019,0.211-0.031,0.423-0.031,0.639v17.073c0,0.046,0.006,0.092,0.006,0.138h8.947V115.067z"/>
</g>
</svg>
